<svg width="24" height="24" viewBox="0 0 24 24" fill="none" xmlns="http://www.w3.org/2000/svg">
<path d="M10.4997 10.0128C11.3281 10.0128 11.9997 9.3412 11.9997 8.51278C11.9997 7.68435 11.3281 7.01278 10.4997 7.01278C9.67127 7.01278 8.99969 7.68435 8.99969 8.51278C8.99969 9.3412 9.67127 10.0128 10.4997 10.0128Z" fill="black"/>
<path d="M8.49969 15.0128C9.32812 15.0128 9.99969 14.3412 9.99969 13.5128C9.99969 12.6844 9.32812 12.0128 8.49969 12.0128C7.67127 12.0128 6.99969 12.6844 6.99969 13.5128C6.99969 14.3412 7.67127 15.0128 8.49969 15.0128Z" fill="black"/>
<path d="M14.9997 16.0128C15.552 16.0128 15.9997 15.5651 15.9997 15.0128C15.9997 14.4605 15.552 14.0128 14.9997 14.0128C14.4474 14.0128 13.9997 14.4605 13.9997 15.0128C13.9997 15.5651 14.4474 16.0128 14.9997 16.0128Z" fill="black"/>
<path d="M21.9497 11.0028C20.1597 10.9728 18.2497 9.05278 19.2697 6.78278C16.2997 7.78278 13.4897 5.19278 14.0797 2.22278C7.10969 0.752778 1.99969 6.42278 1.99969 12.0128C1.99969 17.5328 6.47969 22.0128 11.9997 22.0128C17.8897 22.0128 22.5397 16.9328 21.9497 11.0028ZM11.9997 20.0128C7.58969 20.0128 3.99969 16.4228 3.99969 12.0128C3.99969 8.70278 6.72969 3.83278 12.0797 3.99278C12.4997 6.53278 14.5197 8.55278 17.0697 8.93278C17.1397 9.29278 17.5897 11.4828 19.9897 12.5628C19.6997 16.8728 16.0597 20.0128 11.9997 20.0128Z" fill="black"/>
</svg>
